PathFileType	4	(X/Y/Z)	C:\Users\Basilio\Documents\Thesis Gigler\squatting_fais\c3dfiles\058\SLS_back_pre4\markers_experimental.trc
DataRate	CameraRate	NumFrames	NumMarkers	Units	OrigDataRate	OrigDataStartFrame	OrigNumFrames
200.000000	200.000000	4	61	mm	200.000000	479	1279
Frame#	Time	FHD			LBHD			RBHD			C7			T10			CLAV			LSHO			LUUPA			LMUPA			LDUPA			LLEP			LMEP			LRAD			LUL			LRFIN			RSHO			RUPA1			RMUPA			RDUPA			RLEP			RMEP			RRAD			RUL			RUFIN			LASI			RASI			USACR			LSACR			RSACR			LTHI1			LTHI2			LTHI3			LTHI4			LLFC			LMFC			LTIB1			LTIB2			LTIB3			LTIB4			LLMAL			LMMAL			LHEE			LMT1			LMT2			LMT5			RTHI			RTHI2			RTHI3			RTHI4			RLFC			RMFC			RTIB1			RTIB2			RTIB3			RTIB4			RLMAL			RMMAL			RHEE			RMT1			RMT2			RMT5			
		X1	Y1	Z1	X2	Y2	Z2	X3	Y3	Z3	X4	Y4	Z4	X5	Y5	Z5	X6	Y6	Z6	X7	Y7	Z7	X8	Y8	Z8	X9	Y9	Z9	X10	Y10	Z10	X11	Y11	Z11	X12	Y12	Z12	X13	Y13	Z13	X14	Y14	Z14	X15	Y15	Z15	X16	Y16	Z16	X17	Y17	Z17	X18	Y18	Z18	X19	Y19	Z19	X20	Y20	Z20	X21	Y21	Z21	X22	Y22	Z22	X23	Y23	Z23	X24	Y24	Z24	X25	Y25	Z25	X26	Y26	Z26	X27	Y27	Z27	X28	Y28	Z28	X29	Y29	Z29	X30	Y30	Z30	X31	Y31	Z31	X32	Y32	Z32	X33	Y33	Z33	X34	Y34	Z34	X35	Y35	Z35	X36	Y36	Z36	X37	Y37	Z37	X38	Y38	Z38	X39	Y39	Z39	X40	Y40	Z40	X41	Y41	Z41	X42	Y42	Z42	X43	Y43	Z43	X44	Y44	Z44	X45	Y45	Z45	X46	Y46	Z46	X47	Y47	Z47	X48	Y48	Z48	X49	Y49	Z49	X50	Y50	Z50	X51	Y51	Z51	X52	Y52	Z52	X53	Y53	Z53	X54	Y54	Z54	X55	Y55	Z55	X56	Y56	Z56	X57	Y57	Z57	X58	Y58	Z58	X59	Y59	Z59	X60	Y60	Z60	X61	Y61	Z61	

480	2.395	-268.0002136230469	1785.74609375	-609.0858764648439	-427.6803283691407	1744.636596679688	-681.9816894531251	-256.2178955078126	1793.16796875	-751.3156738281251	-444.1718139648439	1578.17919921875	-701.3214111328126	-452.3722534179689	1276.096069335938	-711.5823974609376	-286.7297363281251	1537.666870117188	-684.0330200195314	-302.2199096679688	1598.643188476563	-833.296325683594	-142.1344604492188	1540.862548828125	-939.873229980469	-120.0935440063477	1579.175048828125	-914.3350219726565	-72.92974090576173	1543.371826171875	-928.3431396484377	0.4944312870502473	1550.130981445313	-909.303161621094	5.206643581390382	1496.469604492188	-871.2135009765627	262.3110961914063	1576.749755859375	-801.662780761719	265.3888244628907	1595.985717773438	-880.8137817382815	361.2732238769532	1606.694702148438	-800.5336914062502	-321.1382446289063	1588.603637695313	-533.5253906250001	-158.2886657714844	1514.900756835938	-435.1832275390626	-139.3263702392578	1554.72265625	-458.753875732422	-89.99887084960939	1528.877319335938	-438.8518981933595	-22.09861183166504	1526.788940429688	-451.7898559570314	-12.95700836181641	1469.049194335938	-503.7508544921876	nan	nan	nan	240.4766540527344	1592.5615234375	-466.5956115722657	328.8202819824219	1619.73876953125	-536.0291748046876	-284.9117736816407	1073.525634765625	-851.7285766601565	-286.5300292968751	1054.839599609375	-611.1916503906251	-472.1091613769532	1163.873291015625	-717.4663085937501	-480.8946228027345	1135.244750976563	-748.1459960937501	-479.3863525390626	1129.614013671875	-690.1636962890626	-307.3704528808594	806.5745849609377	-956.6459960937502	-266.0704650878907	731.4050903320314	-962.7270507812502	-221.8059082031251	734.5392456054689	-940.175964355469	-288.2754211425782	675.4875488281251	-962.0447998046877	-298.1874389648438	593.0921020507814	-955.8919677734377	-267.4976806640626	565.9839477539064	-827.4676513671877	-382.8266601562501	495.1675109863282	-915.740417480469	-441.0687561035157	549.4088134765626	-951.0662231445315	-433.7904663085939	506.3843688964845	-940.3005371093752	-510.2573242187501	483.3348693847657	-905.1114501953127	-706.1629028320314	513.7819824218751	-877.4517822265627	-680.2315063476564	462.5935363769532	-802.8150634765627	-701.4146118164064	561.1402587890626	-804.528991699219	-795.2309570312502	359.8511657714844	-825.7171020507815	-803.6676025390627	365.6716613769532	-872.7227172851565	-817.8052368164065	427.3236694335939	-906.0303344726565	-379.1521911621094	843.786071777344	-555.0073242187501	-334.7625732421876	794.0902099609377	-553.4244384765626	-301.9551086425782	798.097595214844	-553.9724121093751	-348.9709167480469	715.0698242187501	-577.9816894531251	-316.6275329589844	540.3294067382814	-604.9389038085939	-272.8163757324219	542.5649414062501	-732.6841430664064	-278.3597717285157	345.6500854492188	-704.9590454101564	-329.7762451171876	266.6470031738282	-649.6641235351564	-293.5857849121094	259.3289794921876	-679.4031982421876	-304.4835205078126	220.7837066650391	-720.4121093750001	-375.5463867187501	112.7161407470703	-691.6691894531251	-340.6589965820313	144.4544677734375	-774.0576782226565	-439.1342773437501	101.0369949340821	-761.0402832031251	-229.0970611572266	66.63301086425783	-768.9683837890627	-225.5828857421876	59.24207305908205	-717.5290527343751	-274.1196289062501	23.10894012451172	-669.8576049804689	
481	2.4	-267.6343383789063	1784.839111328125	-609.2514648437501	-427.1794738769532	1743.864379882813	-682.1541748046876	-255.7377319335938	1792.28662109375	-751.3843994140626	-444.0067138671876	1577.323608398438	-701.3848876953126	-452.3346252441407	1275.441528320313	-711.7540283203126	-286.3601074218751	1536.953491210938	-684.1702880859376	-301.8468017578126	1597.79248046875	-833.457702636719	-141.6842498779297	1540.194946289063	-939.9759521484377	-119.7575836181641	1578.364379882813	-914.3640747070315	-72.7396926879883	1542.833984375	-928.3220825195315	0.6203377246856691	1549.466552734375	-909.1411743164065	5.556085109710694	1495.9267578125	-871.2958984375002	262.7287292480469	1576.30029296875	-801.520446777344	265.5506591796876	1595.224609375	-880.569274902344	360.9947814941407	1605.693115234375	-800.7924804687502	-321.1170043945313	1587.706787109375	-533.9450683593751	-157.9693603515625	1514.200317382813	-435.3281860351564	-139.2042999267578	1553.6875	-458.8701782226564	-89.81540679931642	1528.076171875	-439.0751953125001	-21.99879455566407	1525.938842773438	-451.7893066406251	-12.73290920257569	1468.359008789063	-503.7818908691407	nan	nan	nan	240.2976531982422	1591.192993164063	-466.7369689941407	329.2403259277344	1618.883422851563	-535.6816406250001	-285.1904602050782	1072.576904296875	-851.883728027344	-287.0037841796876	1053.984985351563	-611.3914794921876	-472.230682373047	1163.161010742188	-717.7200317382814	-481.0957336425782	1134.475219726563	-748.4171752929689	-479.8413696289064	1128.868286132813	-690.2064819335939	-307.7065734863282	805.533630371094	-956.689880371094	-266.6115112304688	730.3595581054689	-962.6043090820315	-222.0111083984376	733.4318847656251	-940.2581176757815	-288.8870544433594	674.5048217773439	-962.0096435546877	-298.7893066406251	592.0614013671876	-955.8718872070315	-268.0429687500001	565.2645874023439	-827.573913574219	-388.1389770507814	498.1778869628907	-915.1542968750002	-441.7916259765626	548.3435668945314	-951.1688232421877	-434.7057189941407	505.4552612304689	-940.232360839844	-511.1112365722657	482.2402648925782	-905.0679931640627	-707.0263671875001	512.9539794921876	-877.3350830078127	-680.7415771484376	461.8547973632814	-802.8921508789065	-702.3655395507814	560.3207397460939	-804.5078735351565	-795.8401489257815	359.0276184082032	-825.7529907226565	-804.292419433594	364.7062072753907	-872.8286743164065	-818.308288574219	426.2839660644532	-906.1311645507815	-378.9376525878907	843.0776977539065	-554.9649658203126	-334.0385437011719	793.332214355469	-553.2618408203126	-301.5959167480469	797.5371093750002	-553.8631591796876	-347.9066772460938	714.0767822265626	-577.9863891601564	-315.0343017578126	540.0755615234376	-604.8186645507814	-271.3673706054688	542.1110839843751	-732.5046997070314	-277.2954101562501	345.4588317871094	-705.1120605468751	-329.2065734863282	266.4199523925782	-649.6051635742189	-293.0643615722657	258.9530334472657	-679.4752807617189	-304.2293395996094	220.6061401367188	-720.4754028320314	-375.4212341308594	112.7290954589844	-691.6961059570314	-340.5720825195313	144.4496002197266	-774.120544433594	-439.1299438476564	101.0429992675782	-761.0316772460939	-229.1230163574219	66.60427093505861	-768.9837036132815	-225.4851684570313	59.2340431213379	-717.5933837890626	-274.1348571777344	23.16398048400879	-669.8888549804689	
482	2.405	-267.0781860351563	1784.134765625	-609.3151855468751	-426.7226562500001	1743.060302734375	-682.2817382812501	-255.4962463378907	1791.374267578125	-751.5650634765626	-443.6888122558595	1576.203735351563	-701.4518432617189	-452.5870361328126	1274.673583984375	-711.8873291015626	-286.1577148437501	1536.0595703125	-684.2972412109376	-301.4093322753907	1596.923583984375	-833.5906372070315	-141.1944732666016	1539.3544921875	-940.1353759765627	-119.3234024047852	1577.721435546875	-914.4877929687502	-72.0705032348633	1542.12255859375	-928.4612426757815	1.109458088874817	1548.733642578125	-909.3966064453127	5.965533256530763	1495.100341796875	-871.4307861328127	263.1983337402344	1575.329223632813	-801.472351074219	266.1469726562501	1594.636108398438	-880.6985473632815	361.2182312011719	1604.95556640625	-800.745544433594	-320.9875793457032	1586.842529296875	-534.0543823242189	-157.9091949462891	1513.663330078125	-435.3166809082032	-138.9516754150391	1552.824096679688	-459.0711364746095	-89.53854370117189	1527.299926757813	-439.3174438476564	-21.79451751708985	1525.113891601563	-451.8568115234376	-12.44931793212891	1467.440795898438	-503.8892211914064	nan	nan	nan	240.8832702636719	1591.070678710938	-466.6840209960939	329.6245727539063	1617.82470703125	-535.7091064453126	-285.5816040039063	1071.6904296875	-852.0819091796877	-287.6321716308594	1053.154174804688	-611.5510253906251	-472.3750000000001	1162.498657226563	-717.9509277343751	-481.4238586425782	1133.712036132813	-748.4404907226564	-479.1736755371095	1128.096923828125	-690.6750488281251	-308.3964843750001	804.603942871094	-956.6820068359377	-267.2550659179688	729.4428710937501	-962.7270507812502	-222.3454132080079	732.7557983398439	-940.0117797851565	-289.4296569824219	673.4586791992189	-962.0185546875002	-299.5835571289063	591.1827392578126	-955.676208496094	-268.9390258789063	564.0756225585939	-827.3483886718752	-386.279510498047	497.6849365234376	-917.0725097656252	-442.5873107910157	547.3078002929689	-950.9331054687502	-435.3807067871095	504.2850952148439	-939.997985839844	-511.8038940429689	481.131072998047	-904.984313964844	-707.8580322265626	512.1223754882814	-877.264587402344	-681.6773071289064	461.0120239257814	-802.7707519531252	-703.0318603515626	559.1843261718751	-804.315124511719	-796.8077392578127	357.8458862304688	-825.6707763671877	-805.3513793945315	363.7897033691407	-872.8924560546877	-819.1299438476565	425.6089782714845	-906.0667114257815	-378.5112915039063	841.925476074219	-554.9046020507814	-333.4725036621094	792.7972412109377	-553.3470458984376	-300.7349548339844	797.052185058594	-553.8850097656251	-347.3588562011719	713.1577148437501	-577.7445678710939	-313.4251403808594	539.6776123046876	-604.8059082031251	-269.9465942382813	541.6092529296876	-732.4752197265626	-276.2390136718751	345.3153991699219	-705.0969238281251	-328.4522094726563	266.1161804199219	-649.5708618164064	-292.1313781738282	258.7085571289063	-679.5117797851564	-304.0123901367188	220.3526306152344	-720.5642089843751	-375.2387390136719	112.6933517456055	-691.7282714843751	-340.4639892578126	144.4503784179688	-774.1859130859377	-439.1015625000001	101.0599136352539	-761.0463867187501	-229.0992889404297	66.47122955322267	-769.025573730469	-225.4529876708985	59.14923095703126	-717.6184082031251	-274.1414489746094	23.13125228881836	-669.9107055664064	
483	2.41	-266.7443237304688	1783.085571289063	-609.4717407226564	-426.4284057617189	1741.849365234375	-682.4414062500001	-255.0226135253907	1790.538940429688	-751.6189575195314	-443.297332763672	1575.759399414063	-701.5805664062501	-452.613250732422	1274.026977539063	-712.1281127929689	-285.7526245117188	1535.124389648438	-684.4158325195314	-300.9653625488282	1596.159423828125	-833.6726074218752	-140.8939971923828	1538.713500976563	-940.2734375000002	-119.0985107421875	1576.9873046875	-914.5427856445315	-71.56332397460939	1541.212158203125	-928.6313476562502	1.50443172454834	1547.996459960938	-909.477722167969	6.319515228271486	1494.017578125	-871.5490722656252	263.3533325195313	1574.10302734375	-801.4058837890627	266.4133300781251	1593.980102539063	-880.684997558594	361.6303100585938	1604.275268554688	-800.686706542969	-320.6231079101563	1586.05712890625	-534.3131103515626	-157.5920562744141	1512.617797851563	-435.5721435546876	-138.756103515625	1552.275268554688	-459.1621093750001	-89.56822967529298	1526.48828125	-439.4063720703126	-21.45745658874512	1524.290405273438	-451.952850341797	-12.43700504302979	1466.54638671875	-504.0416564941407	nan	nan	nan	240.9759826660157	1590.07421875	-466.7380371093751	329.8838500976563	1616.642211914063	-536.1834106445314	-286.1178588867188	1070.606567382813	-852.3790283203127	-288.1378784179688	1052.279541015625	-611.7320556640626	-472.7022399902345	1161.736938476563	-717.9417724609376	-481.7271423339845	1133.053100585938	-748.5645141601564	-480.3413085937501	1127.498046875	-690.6020507812501	-309.1049499511719	803.688415527344	-956.833190917969	-267.9575195312501	728.4471435546876	-962.663024902344	-223.0848388671876	731.6731567382814	-940.482604980469	-290.0551147460938	672.5392456054689	-962.034851074219	-300.0936584472657	590.0609130859376	-955.7451782226565	-269.6331176757813	563.1400146484376	-827.446228027344	-385.1340942382814	492.4578247070314	-915.7099609375002	-443.2119750976564	546.3306884765626	-950.8865356445315	-436.1544799804689	503.421112060547	-939.957458496094	-512.6171264648439	480.160614013672	-905.0379638671877	-708.5438232421876	511.2158203125001	-877.173522949219	-682.4841918945314	460.2111816406251	-802.565124511719	-703.6377563476564	558.2871704101564	-804.213806152344	-797.6238403320315	357.1727600097657	-825.5447387695315	-806.251403808594	363.0616149902344	-872.8393554687502	-819.7942504882815	424.9050598144532	-905.9506835937502	-378.2707824707032	840.972351074219	-554.6480102539064	-332.7255249023438	792.3605957031252	-553.3112792968751	-300.0180969238282	796.5418701171877	-553.9290771484376	-346.1182250976563	712.5357055664064	-577.6433715820314	-312.1372680664063	538.8630371093751	-604.5413208007814	-268.5494384765626	541.3826904296876	-732.3367309570314	-275.5089416503907	344.8753051757813	-705.0404663085939	-327.6296081542969	265.7630310058594	-649.5084838867189	-291.6279602050782	258.3739624023438	-679.5624389648439	-303.6982727050782	220.0013580322266	-720.5523071289064	-375.0367736816407	112.6819229125977	-691.7166748046876	-340.3579406738282	144.4064331054688	-774.247985839844	-439.0761718750001	101.0816040039063	-761.0413818359376	-229.074447631836	66.26442718505861	-769.0249633789065	-225.4225311279297	59.10971450805665	-717.6875000000001	-274.1136474609376	23.18921089172364	-669.8870849609376	
